# xmcd
#
# Track frame offsets: 
#        225
#        13619
#        26045
#        38516
#        51748
#        65885
#        76916
#        89711
#        98926
#        114389
#        126627
#        136659
#        148740
#        159728
#        172207
#
# Disc length: 2447 seconds
#
# Revision: 0
# Processed by: cddbd v1.5.1PL0 Copyright (c) Steve Scherf et al.
# Submitted via: ExactAudioCopy v0.95a5
#
DISCID=e0098c0f
DTITLE=Various Artist - Once Upon A Time In The West
DYEAR=2002
DGENRE=Bluegrass
TTITLE0=Ralph Stanley and Ricky Skaggs - White Dove
TTITLE1=Bill Monroe and His Blue Grass Boys - Mule Skinner Blues
TTITLE2=Gene Autry - Deep In The Heart Of Texas
TTITLE3=Red Foley - Hang Your Head In Shame
TTITLE4=Patsy Montana and The Prairie Ramblers - I Want To Be A Cowboy's
TTITLE4=Sweetheart
TTITLE5=Roy Acuff - Not A Word From Home
TTITLE6=Tex Ritter and His Texans - I'm Wearing My Tears
TTITLE7=Bob Wills - Ole San Antonio Rose
TTITLE8=Tex Ritter - Hillbilly Heaven
TTITLE9=Tex Daffan's Texans - Born To Lose
TTITLE10=Tex WIlliams - Bummin' Around
TTITLE11=Bob WIlls - Take Me Back To Tulsa
TTITLE12=Gene Autry - You Are My Sunshine
TTITLE13=Elton Brit - There's A Star Spangled Banner Waving Somewhere
TTITLE14=Bill Monroe and His Blue Grass Boys - Orange Blossom Special
EXTD=
EXTT0=
EXTT1=
EXTT2=
EXTT3=
EXTT4=
EXTT5=
EXTT6=
EXTT7=
EXTT8=
EXTT9=
EXTT10=
EXTT11=
EXTT12=
EXTT13=
EXTT14=
PLAYORDER=
